<svg width="76" height="76" viewBox="0 0 76 76" fill="none" xmlns="http://www.w3.org/2000/svg">
<path d="M8 0.5H68C72.1421 0.5 75.5 3.85786 75.5 8V68C75.5 72.1421 72.1421 75.5 68 75.5H8C3.85786 75.5 0.5 72.1421 0.5 68V8L0.509766 7.61426C0.710536 3.65139 3.98724 0.5 8 0.5Z" fill="#1C1C1C"/>
<path d="M8 0.5H68C72.1421 0.5 75.5 3.85786 75.5 8V68C75.5 72.1421 72.1421 75.5 68 75.5H8C3.85786 75.5 0.5 72.1421 0.5 68V8L0.509766 7.61426C0.710536 3.65139 3.98724 0.5 8 0.5Z" stroke="#737373"/>
<path d="M57.9994 42C58.0045 42.8155 57.7567 43.6124 57.2902 44.2813C56.8237 44.9502 56.1614 45.458 55.3944 45.735L42.4994 50.5L37.7494 63.405C37.4681 64.1692 36.9592 64.8287 36.2913 65.2945C35.6234 65.7604 34.8287 66.0102 34.0144 66.0102C33.2001 66.0102 32.4054 65.7604 31.7375 65.2945C31.0696 64.8287 30.5607 64.1692 30.2794 63.405L25.4994 50.5L12.5944 45.75C11.8302 45.4687 11.1707 44.9598 10.7049 44.2919C10.239 43.624 9.98926 42.8293 9.98926 42.015C9.98926 41.2007 10.239 40.406 10.7049 39.7381C11.1707 39.0702 11.8302 38.5613 12.5944 38.28L25.4994 33.5L30.2494 20.595C30.5307 19.8308 31.0396 19.1713 31.7075 18.7055C32.3754 18.2396 33.1701 17.9898 33.9844 17.9898C34.7987 17.9898 35.5934 18.2396 36.2613 18.7055C36.9292 19.1713 37.4381 19.8308 37.7194 20.595L42.4994 33.5L55.4044 38.25C56.172 38.5295 56.8339 39.0403 57.2987 39.712C57.7635 40.3838 58.0083 41.1832 57.9994 42ZM43.9994 18H47.9994V22C47.9994 22.5304 48.2101 23.0391 48.5852 23.4142C48.9603 23.7893 49.469 24 49.9994 24C50.5299 24 51.0386 23.7893 51.4136 23.4142C51.7887 23.0391 51.9994 22.5304 51.9994 22V18H55.9994C56.5299 18 57.0386 17.7893 57.4136 17.4142C57.7887 17.0391 57.9994 16.5304 57.9994 16C57.9994 15.4696 57.7887 14.9609 57.4136 14.5858C57.0386 14.2107 56.5299 14 55.9994 14H51.9994V10C51.9994 9.46957 51.7887 8.96086 51.4136 8.58579C51.0386 8.21071 50.5299 8 49.9994 8C49.469 8 48.9603 8.21071 48.5852 8.58579C48.2101 8.96086 47.9994 9.46957 47.9994 10V14H43.9994C43.469 14 42.9603 14.2107 42.5852 14.5858C42.2101 14.9609 41.9994 15.4696 41.9994 16C41.9994 16.5304 42.2101 17.0391 42.5852 17.4142C42.9603 17.7893 43.469 18 43.9994 18ZM65.9994 26H63.9994V24C63.9994 23.4696 63.7887 22.9609 63.4136 22.5858C63.0386 22.2107 62.5299 22 61.9994 22C61.469 22 60.9603 22.2107 60.5852 22.5858C60.2101 22.9609 59.9994 23.4696 59.9994 24V26H57.9994C57.469 26 56.9603 26.2107 56.5852 26.5858C56.2101 26.9609 55.9994 27.4696 55.9994 28C55.9994 28.5304 56.2101 29.0391 56.5852 29.4142C56.9603 29.7893 57.469 30 57.9994 30H59.9994V32C59.9994 32.5304 60.2101 33.0391 60.5852 33.4142C60.9603 33.7893 61.469 34 61.9994 34C62.5299 34 63.0386 33.7893 63.4136 33.4142C63.7887 33.0391 63.9994 32.5304 63.9994 32V30H65.9994C66.5299 30 67.0386 29.7893 67.4136 29.4142C67.7887 29.0391 67.9994 28.5304 67.9994 28C67.9994 27.4696 67.7887 26.9609 67.4136 26.5858C67.0386 26.2107 66.5299 26 65.9994 26Z" fill="#1472FF"/>
</svg>
