<svg width="333" height="377" viewBox="0 0 333 377" fill="none" xmlns="http://www.w3.org/2000/svg">
<g filter="url(#filter0_d_3816_851)">
<path d="M40 20C40 13.3726 45.3726 8 52 8H71.999C85.4727 8 87.1569 20 103.999 20H156C162.627 20 168 25.3726 168 32V104C168 110.627 162.627 116 156 116H52C45.3726 116 40 110.627 40 104V20Z" fill="#52AFE0"/>
<path d="M40 20C40 13.3726 45.3726 8 52 8H71.999C85.4727 8 87.1569 20 103.999 20H156C162.627 20 168 25.3726 168 32V104C168 110.627 162.627 116 156 116H52C45.3726 116 40 110.627 40 104V20Z" fill="url(#paint0_linear_3816_851)" fill-opacity="0.2"/>
<g filter="url(#filter1_i_3816_851)">
<path d="M40 104V48C40 41.3726 45.3726 36 52 36L156 36C162.627 36 168 41.3726 168 48V104C168 110.627 162.627 116 156 116H52C45.3726 116 40 110.627 40 104Z" fill="#73D0FA"/>
<path d="M40 104V48C40 41.3726 45.3726 36 52 36L156 36C162.627 36 168 41.3726 168 48V104C168 110.627 162.627 116 156 116H52C45.3726 116 40 110.627 40 104Z" fill="url(#paint1_radial_3816_851)" fill-opacity="0.16"/>
</g>
</g>
<rect x="40" y="139" width="128" height="24" rx="6" fill="#636367"/>
<g filter="url(#filter2_d_3816_851)">
<rect x="112" y="76" width="180" height="228" rx="8" fill="#18181B" shape-rendering="crispEdges"/>
<rect x="111.5" y="75.5" width="181" height="229" rx="8.5" stroke="white" stroke-opacity="0.05" shape-rendering="crispEdges"/>
<rect x="128" y="94" width="128" height="20" rx="6" fill="#48484B"/>
<rect x="128" y="134" width="80" height="20" rx="6" fill="#48484B"/>
<line x1="112" y1="169.5" x2="292" y2="169.5" stroke="#3A3A3B"/>
<path fill-rule="evenodd" clip-rule="evenodd" d="M148 192.187V192.229L148 194.956V197.044L148 199.773V199.823C148 200.044 148 200.265 147.999 200.486C147.997 200.686 147.995 200.886 147.99 201.087C147.978 201.523 147.952 201.963 147.875 202.394C147.796 202.832 147.668 203.24 147.465 203.637C147.267 204.028 147.007 204.386 146.697 204.696C146.387 205.006 146.03 205.266 145.639 205.465C145.242 205.668 144.835 205.796 144.398 205.875C143.966 205.952 143.527 205.978 143.091 205.99C142.891 205.995 142.691 205.997 142.49 205.999C142.27 206 142.05 206 141.829 206H141.778L134.247 206H134.205C133.981 206 133.757 206 133.533 205.999C133.332 205.997 133.132 205.995 132.931 205.99C132.495 205.978 132.054 205.952 131.622 205.875C131.184 205.796 130.776 205.668 130.377 205.465C129.986 205.266 129.628 205.006 129.318 204.696C129.007 204.386 128.747 204.028 128.548 203.637C128.345 203.24 128.217 202.832 128.138 202.395C128.06 201.963 128.034 201.523 128.023 201.087C128.017 200.886 128.015 200.686 128.014 200.486C128.012 200.262 128.012 200.039 128.012 199.815L128.012 199.773L128 197.044V192.286C128 192.159 128.004 192.015 128.007 191.873C128.01 191.749 128.013 191.627 128.014 191.517C128.015 191.317 128.017 191.117 128.023 190.917C128.034 190.481 128.06 190.042 128.138 189.611C128.216 189.174 128.345 188.767 128.548 188.369C128.747 187.979 129.007 187.622 129.318 187.312C129.628 187.002 129.986 186.743 130.378 186.544C130.776 186.342 131.184 186.214 131.622 186.135C132.054 186.058 132.494 186.032 132.931 186.02C133.132 186.015 133.332 186.012 133.533 186.011C133.754 186.01 133.975 186.01 134.196 186.01L134.247 186.01L136.956 186H139.019L141.778 186.01L141.829 186.01C142.049 186.01 142.27 186.01 142.49 186.011C142.691 186.012 142.891 186.015 143.091 186.02C143.526 186.032 143.966 186.058 144.397 186.135C144.835 186.214 145.242 186.342 145.639 186.544C146.03 186.743 146.387 187.002 146.697 187.312C147.007 187.622 147.267 187.979 147.466 188.369C147.668 188.767 147.796 189.173 147.875 189.61C147.952 190.041 147.978 190.481 147.99 190.917C147.995 191.117 147.997 191.316 147.999 191.517C148 191.74 148 191.964 148 192.187ZM143.404 201.876L139.317 195.866L143.184 190.221H140.364L137.983 193.868L135.619 190.221H132.816L136.666 195.882L132.596 201.876H135.416L137.983 197.88L140.567 201.876H143.404Z" fill="url(#paint2_linear_3816_851)"/>
<path d="M139.317 195.866L143.404 201.876H140.567L137.983 197.88L135.416 201.876H132.596L136.666 195.882L132.816 190.221H135.619L137.983 193.868L140.364 190.221H143.184L139.317 195.866Z" fill="white"/>
<rect x="158" y="186" width="88" height="20" rx="6" fill="#48484B"/>
<rect width="180" height="40" transform="translate(112 216)" fill="#2C2C30"/>
<path fill-rule="evenodd" clip-rule="evenodd" d="M148 232.187V232.229L148 234.956V237.044L148 239.773V239.823C148 240.044 148 240.265 147.999 240.486C147.997 240.686 147.995 240.886 147.99 241.087C147.978 241.523 147.952 241.963 147.875 242.394C147.796 242.832 147.668 243.24 147.465 243.637C147.267 244.028 147.007 244.386 146.697 244.696C146.387 245.006 146.03 245.266 145.639 245.465C145.242 245.668 144.835 245.796 144.398 245.875C143.966 245.952 143.527 245.978 143.091 245.99C142.891 245.995 142.691 245.997 142.49 245.999C142.27 246 142.05 246 141.829 246H141.778L134.247 246H134.205C133.981 246 133.757 246 133.533 245.999C133.332 245.997 133.132 245.995 132.931 245.99C132.495 245.978 132.054 245.952 131.622 245.875C131.184 245.796 130.776 245.668 130.377 245.465C129.986 245.266 129.628 245.006 129.318 244.696C129.007 244.386 128.747 244.028 128.548 243.637C128.345 243.24 128.217 242.832 128.138 242.395C128.06 241.963 128.034 241.523 128.023 241.087C128.017 240.886 128.015 240.686 128.014 240.486C128.012 240.262 128.012 240.039 128.012 239.815L128.012 239.773L128 237.044V232.286C128 232.159 128.004 232.015 128.007 231.873C128.01 231.749 128.013 231.627 128.014 231.517C128.015 231.317 128.017 231.117 128.023 230.917C128.034 230.481 128.06 230.042 128.138 229.611C128.216 229.174 128.345 228.767 128.548 228.369C128.747 227.979 129.007 227.622 129.318 227.312C129.628 227.002 129.986 226.743 130.378 226.544C130.776 226.342 131.184 226.214 131.622 226.135C132.054 226.058 132.494 226.032 132.931 226.02C133.132 226.015 133.332 226.012 133.533 226.011C133.754 226.01 133.975 226.01 134.196 226.01L134.247 226.01L136.956 226H139.019L141.778 226.01L141.829 226.01C142.049 226.01 142.27 226.01 142.49 226.011C142.691 226.012 142.891 226.015 143.091 226.02C143.526 226.032 143.966 226.058 144.397 226.135C144.835 226.214 145.242 226.342 145.639 226.544C146.03 226.743 146.387 227.002 146.697 227.312C147.007 227.622 147.267 227.979 147.466 228.369C147.668 228.767 147.796 229.173 147.875 229.61C147.952 230.041 147.978 230.481 147.99 230.917C147.995 231.117 147.997 231.316 147.999 231.517C148 231.74 148 231.964 148 232.187ZM143.404 241.876L139.317 235.866L143.184 230.221H140.364L137.983 233.868L135.619 230.221H132.816L136.666 235.882L132.596 241.876H135.416L137.983 237.88L140.567 241.876H143.404Z" fill="url(#paint3_linear_3816_851)"/>
<path d="M139.317 235.866L143.404 241.876H140.567L137.983 237.88L135.416 241.876H132.596L136.666 235.882L132.816 230.221H135.619L137.983 233.868L140.364 230.221H143.184L139.317 235.866Z" fill="white"/>
<rect x="158" y="226" width="112" height="20" rx="6" fill="#48484B"/>
<path fill-rule="evenodd" clip-rule="evenodd" d="M148 272.187V272.229L148 274.956V277.044L148 279.773V279.823C148 280.044 148 280.265 147.999 280.486C147.997 280.686 147.995 280.886 147.99 281.087C147.978 281.523 147.952 281.963 147.875 282.394C147.796 282.832 147.668 283.24 147.465 283.637C147.267 284.028 147.007 284.386 146.697 284.696C146.387 285.006 146.03 285.266 145.639 285.465C145.242 285.668 144.835 285.796 144.398 285.875C143.966 285.952 143.527 285.978 143.091 285.99C142.891 285.995 142.691 285.997 142.49 285.999C142.27 286 142.05 286 141.829 286H141.778L134.247 286H134.205C133.981 286 133.757 286 133.533 285.999C133.332 285.997 133.132 285.995 132.931 285.99C132.495 285.978 132.054 285.952 131.622 285.875C131.184 285.796 130.776 285.668 130.377 285.465C129.986 285.266 129.628 285.006 129.318 284.696C129.007 284.386 128.747 284.028 128.548 283.637C128.345 283.24 128.217 282.832 128.138 282.395C128.06 281.963 128.034 281.523 128.023 281.087C128.017 280.886 128.015 280.686 128.014 280.486C128.012 280.262 128.012 280.039 128.012 279.815L128.012 279.773L128 277.044V272.286C128 272.159 128.004 272.015 128.007 271.873C128.01 271.749 128.013 271.627 128.014 271.517C128.015 271.317 128.017 271.117 128.023 270.917C128.034 270.481 128.06 270.042 128.138 269.611C128.216 269.174 128.345 268.767 128.548 268.369C128.747 267.979 129.007 267.622 129.318 267.312C129.628 267.002 129.986 266.743 130.378 266.544C130.776 266.342 131.184 266.214 131.622 266.135C132.054 266.058 132.494 266.032 132.931 266.02C133.132 266.015 133.332 266.012 133.533 266.011C133.754 266.01 133.975 266.01 134.196 266.01L134.247 266.01L136.956 266H139.019L141.778 266.01L141.829 266.01C142.049 266.01 142.27 266.01 142.49 266.011C142.691 266.012 142.891 266.015 143.091 266.02C143.526 266.032 143.966 266.058 144.397 266.135C144.835 266.214 145.242 266.342 145.639 266.544C146.03 266.743 146.387 267.002 146.697 267.312C147.007 267.622 147.267 267.979 147.466 268.369C147.668 268.767 147.796 269.173 147.875 269.61C147.952 270.041 147.978 270.481 147.99 270.917C147.995 271.117 147.997 271.316 147.999 271.517C148 271.74 148 271.964 148 272.187ZM143.404 281.876L139.317 275.866L143.184 270.221H140.364L137.983 273.868L135.619 270.221H132.816L136.666 275.882L132.596 281.876H135.416L137.983 277.88L140.567 281.876H143.404Z" fill="url(#paint4_linear_3816_851)"/>
<path d="M139.317 275.866L143.404 281.876H140.567L137.983 277.88L135.416 281.876H132.596L136.666 275.882L132.816 270.221H135.619L137.983 273.868L140.364 270.221H143.184L139.317 275.866Z" fill="white"/>
<rect x="158" y="266" width="64" height="20" rx="6" fill="#48484B"/>
</g>
<g filter="url(#filter3_dd_3816_851)">
<path fill-rule="evenodd" clip-rule="evenodd" d="M235 264.03V232L258.182 255.238H244.62L243.798 255.486L235 264.03Z" fill="white"/>
<path fill-rule="evenodd" clip-rule="evenodd" d="M253.168 265.378L245.958 268.448L236.594 246.27L243.966 243.164L253.168 265.378Z" fill="white"/>
<path fill-rule="evenodd" clip-rule="evenodd" d="M250.501 264.018L246.813 265.566L240.613 250.818L244.295 249.268L250.501 264.018Z" fill="black"/>
<path fill-rule="evenodd" clip-rule="evenodd" d="M237 236.814V259.19L242.938 253.458L243.794 253.18H253.33L237 236.814Z" fill="black"/>
</g>
<defs>
<filter id="filter0_d_3816_851" x="0" y="-8" width="208" height="208" filterUnits="userSpaceOnUse" color-interpolation-filters="sRGB">
<feFlood flood-opacity="0" result="BackgroundImageFix"/>
<feColorMatrix in="SourceAlpha" type="matrix" values="0 0 0 0 0 0 0 0 0 0 0 0 0 0 0 0 0 0 127 0" result="hardAlpha"/>
<feOffset dy="32"/>
<feGaussianBlur stdDeviation="20"/>
<feComposite in2="hardAlpha" operator="out"/>
<feColorMatrix type="matrix" values="0 0 0 0 0 0 0 0 0 0 0 0 0 0 0 0 0 0 0.04 0"/>
<feBlend mode="normal" in2="BackgroundImageFix" result="effect1_dropShadow_3816_851"/>
<feBlend mode="normal" in="SourceGraphic" in2="effect1_dropShadow_3816_851" result="shape"/>
</filter>
<filter id="filter1_i_3816_851" x="40" y="28" width="128" height="87.9998" filterUnits="userSpaceOnUse" color-interpolation-filters="sRGB">
<feFlood flood-opacity="0" result="BackgroundImageFix"/>
<feBlend mode="normal" in="SourceGraphic" in2="BackgroundImageFix" result="shape"/>
<feColorMatrix in="SourceAlpha" type="matrix" values="0 0 0 0 0 0 0 0 0 0 0 0 0 0 0 0 0 0 127 0" result="hardAlpha"/>
<feOffset dy="-8"/>
<feGaussianBlur stdDeviation="4"/>
<feComposite in2="hardAlpha" operator="arithmetic" k2="-1" k3="1"/>
<feColorMatrix type="matrix" values="0 0 0 0 0.321569 0 0 0 0 0.686275 0 0 0 0 0.878431 0 0 0 0.32 0"/>
<feBlend mode="normal" in2="shape" result="effect1_innerShadow_3816_851"/>
</filter>
<filter id="filter2_d_3816_851" x="71" y="67" width="262" height="310" filterUnits="userSpaceOnUse" color-interpolation-filters="sRGB">
<feFlood flood-opacity="0" result="BackgroundImageFix"/>
<feColorMatrix in="SourceAlpha" type="matrix" values="0 0 0 0 0 0 0 0 0 0 0 0 0 0 0 0 0 0 127 0" result="hardAlpha"/>
<feOffset dy="32"/>
<feGaussianBlur stdDeviation="20"/>
<feComposite in2="hardAlpha" operator="out"/>
<feColorMatrix type="matrix" values="0 0 0 0 0 0 0 0 0 0 0 0 0 0 0 0 0 0 0.08 0"/>
<feBlend mode="normal" in2="BackgroundImageFix" result="effect1_dropShadow_3816_851"/>
<feBlend mode="normal" in="SourceGraphic" in2="effect1_dropShadow_3816_851" result="shape"/>
</filter>
<filter id="filter3_dd_3816_851" x="197" y="219" width="100" height="114" filterUnits="userSpaceOnUse" color-interpolation-filters="sRGB">
<feFlood flood-opacity="0" result="BackgroundImageFix"/>
<feColorMatrix in="SourceAlpha" type="matrix" values="0 0 0 0 0 0 0 0 0 0 0 0 0 0 0 0 0 0 127 0" result="hardAlpha"/>
<feMorphology radius="12" operator="erode" in="SourceAlpha" result="effect1_dropShadow_3816_851"/>
<feOffset dy="25"/>
<feGaussianBlur stdDeviation="25"/>
<feComposite in2="hardAlpha" operator="out"/>
<feColorMatrix type="matrix" values="0 0 0 0 0 0 0 0 0 0 0 0 0 0 0 0 0 0 0.25 0"/>
<feBlend mode="normal" in2="BackgroundImageFix" result="effect1_dropShadow_3816_851"/>
<feColorMatrix in="SourceAlpha" type="matrix" values="0 0 0 0 0 0 0 0 0 0 0 0 0 0 0 0 0 0 127 0" result="hardAlpha"/>
<feMorphology radius="6" operator="erode" in="SourceAlpha" result="effect2_dropShadow_3816_851"/>
<feOffset dy="8"/>
<feGaussianBlur stdDeviation="5"/>
<feComposite in2="hardAlpha" operator="out"/>
<feColorMatrix type="matrix" values="0 0 0 0 0 0 0 0 0 0 0 0 0 0 0 0 0 0 0.1 0"/>
<feBlend mode="normal" in2="effect1_dropShadow_3816_851" result="effect2_dropShadow_3816_851"/>
<feBlend mode="normal" in="SourceGraphic" in2="effect2_dropShadow_3816_851" result="shape"/>
</filter>
<linearGradient id="paint0_linear_3816_851" x1="103.999" y1="28" x2="103.999" y2="52" gradientUnits="userSpaceOnUse">
<stop stop-color="#52AFE0"/>
<stop offset="1" stop-color="#00529E" stop-opacity="0.1"/>
</linearGradient>
<radialGradient id="paint1_radial_3816_851" cx="0" cy="0" r="1" gradientUnits="userSpaceOnUse" gradientTransform="translate(104 52) rotate(90) scale(48 76.8001)">
<stop stop-color="white"/>
<stop offset="1" stop-color="white" stop-opacity="0"/>
</radialGradient>
<linearGradient id="paint2_linear_3816_851" x1="138" y1="186.059" x2="138" y2="206.039" gradientUnits="userSpaceOnUse">
<stop stop-color="#0066FF"/>
<stop offset="1" stop-color="#073477"/>
</linearGradient>
<linearGradient id="paint3_linear_3816_851" x1="138" y1="226.059" x2="138" y2="246.039" gradientUnits="userSpaceOnUse">
<stop stop-color="#0066FF"/>
<stop offset="1" stop-color="#073477"/>
</linearGradient>
<linearGradient id="paint4_linear_3816_851" x1="138" y1="266.059" x2="138" y2="286.039" gradientUnits="userSpaceOnUse">
<stop stop-color="#0066FF"/>
<stop offset="1" stop-color="#073477"/>
</linearGradient>
</defs>
</svg>
