<svg width="48" height="50" viewBox="0 0 48 50" fill="none" xmlns="http://www.w3.org/2000/svg">
<path d="M44 0H4C2.93913 0 1.92172 0.421427 1.17157 1.17157C0.421427 1.92172 0 2.93913 0 4V18C0 31.18 6.38 39.1675 11.7325 43.5475C17.4975 48.2625 23.2325 49.8625 23.4825 49.93C23.8263 50.0235 24.1887 50.0235 24.5325 49.93C24.7825 49.8625 30.51 48.2625 36.2825 43.5475C41.62 39.1675 48 31.18 48 18V4C48 2.93913 47.5786 1.92172 46.8284 1.17157C46.0783 0.421427 45.0609 0 44 0ZM35.42 17.415L21.42 31.415C21.2343 31.601 21.0137 31.7485 20.7709 31.8491C20.5281 31.9498 20.2678 32.0016 20.005 32.0016C19.7422 32.0016 19.4819 31.9498 19.2391 31.8491C18.9963 31.7485 18.7757 31.601 18.59 31.415L12.59 25.415C12.2147 25.0397 12.0039 24.5307 12.0039 24C12.0039 23.4693 12.2147 22.9603 12.59 22.585C12.9653 22.2097 13.4743 21.9989 14.005 21.9989C14.5357 21.9989 15.0447 22.2097 15.42 22.585L20 27.1725L32.585 14.585C32.7708 14.3992 32.9914 14.2518 33.2342 14.1512C33.477 14.0506 33.7372 13.9989 34 13.9989C34.2628 13.9989 34.523 14.0506 34.7658 14.1512C35.0086 14.2518 35.2292 14.3992 35.415 14.585C35.6008 14.7708 35.7482 14.9914 35.8488 15.2342C35.9494 15.477 36.0011 15.7372 36.0011 16C36.0011 16.2628 35.9494 16.523 35.8488 16.7658C35.7482 17.0086 35.6008 17.2292 35.415 17.415H35.42Z" fill="#32C356"/>
</svg>
