<svg width="34" height="38" viewBox="0 0 34 38" fill="none" xmlns="http://www.w3.org/2000/svg">
<path d="M17.4219 3.17741C19.5226 3.28172 21.5164 4.16159 23.0107 5.65592C24.6048 7.24998 25.5 9.41232 25.5 11.6667V12.1667H27C28.1189 12.1667 29.195 12.5832 30.0205 13.3307L30.1816 13.485L30.3359 13.6462C31.0834 14.4716 31.5 15.5477 31.5 16.6667V30.6667C31.5 31.8601 31.0256 33.0044 30.1816 33.8483C29.3377 34.6922 28.1935 35.1667 27 35.1667H7C5.80652 35.1667 4.66227 34.6922 3.81836 33.8483C2.97445 33.0044 2.5 31.8601 2.5 30.6667V16.6667L2.50586 16.444C2.56093 15.3316 3.02708 14.2763 3.81836 13.485L3.97949 13.3307C4.80498 12.5832 5.88108 12.1667 7 12.1667H8.5V11.6667C8.5 9.41232 9.3952 7.24998 10.9893 5.65592C12.5833 4.06186 14.7457 3.16666 17 3.16666L17.4219 3.17741ZM17 10.1667C16.6022 10.1667 16.2208 10.3248 15.9395 10.6061C15.6581 10.8874 15.5 11.2688 15.5 11.6667V12.1667H18.5V11.6667C18.5 11.2688 18.3419 10.8874 18.0605 10.6061C17.7792 10.3248 17.3978 10.1667 17 10.1667Z" fill="#737373" stroke="#262626" stroke-width="5"/>
</svg>
