<svg fill="none" viewBox="0 0 32 32" xmlns="http://www.w3.org/2000/svg"><path d="m26.696 10.5446c-.1624.126-3.0299 1.7417-3.0299 5.3345 0 4.1556 3.6488 5.6258 3.758 5.6622-.0168.0896-.5797 2.0134-1.9238 3.9736-1.1985 1.7249-2.4503 3.4471-4.3545 3.4471s-2.3942-1.1061-4.5924-1.1061c-2.1423 0-2.9039 1.1425-4.6457 1.1425s-2.95711-1.5961-4.35445-3.5563c-1.61856-2.3019-2.9263-5.8778-2.9263-9.2718 0-5.4437 3.53956-8.3308 7.02315-8.3308 1.851 0 3.3939 1.21532 4.556 1.21532 1.1061 0 2.8311-1.28813 4.9369-1.28813.7981 0 3.6656.07281 5.553 2.77791zm-6.5527-5.08254c.8709-1.0333 1.487-2.46705 1.487-3.90079 0-.19882-.0168-.40044-.0532-.562857-1.417.053207-3.1027.943697-4.1192 2.122617-.7981.90729-1.543 2.34103-1.543 3.79437 0 .21843.0364.43685.0532.50686.0896.0168.2352.0364.3808.0364 1.2714 0 2.8703-.85129 3.7944-1.9966z" fill="currentColor"/></svg>