<svg width="59" height="59" viewBox="0 0 59 59" fill="none" xmlns="http://www.w3.org/2000/svg">
<path d="M48.9994 34C49.0045 34.8155 48.7567 35.6124 48.2902 36.2813C47.8237 36.9502 47.1614 37.458 46.3944 37.735L33.4994 42.5L28.7494 55.405C28.4681 56.1692 27.9592 56.8287 27.2913 57.2945C26.6234 57.7604 25.8287 58.0102 25.0144 58.0102C24.2001 58.0102 23.4054 57.7604 22.7375 57.2945C22.0696 56.8287 21.5607 56.1692 21.2794 55.405L16.4994 42.5L3.59442 37.75C2.83024 37.4687 2.17074 36.9598 1.70489 36.2919C1.23903 35.624 0.989258 34.8293 0.989258 34.015C0.989258 33.2007 1.23903 32.406 1.70489 31.7381C2.17074 31.0702 2.83024 30.5613 3.59442 30.28L16.4994 25.5L21.2494 12.595C21.5307 11.8308 22.0396 11.1713 22.7075 10.7055C23.3754 10.2396 24.1701 9.98984 24.9844 9.98984C25.7987 9.98984 26.5934 10.2396 27.2613 10.7055C27.9292 11.1713 28.4381 11.8308 28.7194 12.595L33.4994 25.5L46.4044 30.25C47.172 30.5295 47.8339 31.0403 48.2987 31.712C48.7635 32.3838 49.0083 33.1832 48.9994 34ZM34.9994 10H38.9994V14C38.9994 14.5304 39.2101 15.0391 39.5852 15.4142C39.9603 15.7893 40.469 16 40.9994 16C41.5299 16 42.0386 15.7893 42.4136 15.4142C42.7887 15.0391 42.9994 14.5304 42.9994 14V10H46.9994C47.5299 10 48.0386 9.78929 48.4136 9.41421C48.7887 9.03914 48.9994 8.53043 48.9994 8C48.9994 7.46957 48.7887 6.96086 48.4136 6.58579C48.0386 6.21071 47.5299 6 46.9994 6H42.9994V2C42.9994 1.46957 42.7887 0.960859 42.4136 0.585786C42.0386 0.210714 41.5299 0 40.9994 0C40.469 0 39.9603 0.210714 39.5852 0.585786C39.2101 0.960859 38.9994 1.46957 38.9994 2V6H34.9994C34.469 6 33.9603 6.21071 33.5852 6.58579C33.2101 6.96086 32.9994 7.46957 32.9994 8C32.9994 8.53043 33.2101 9.03914 33.5852 9.41421C33.9603 9.78929 34.469 10 34.9994 10ZM56.9994 18H54.9994V16C54.9994 15.4696 54.7887 14.9609 54.4136 14.5858C54.0386 14.2107 53.5299 14 52.9994 14C52.469 14 51.9603 14.2107 51.5852 14.5858C51.2101 14.9609 50.9994 15.4696 50.9994 16V18H48.9994C48.469 18 47.9603 18.2107 47.5852 18.5858C47.2101 18.9609 46.9994 19.4696 46.9994 20C46.9994 20.5304 47.2101 21.0391 47.5852 21.4142C47.9603 21.7893 48.469 22 48.9994 22H50.9994V24C50.9994 24.5304 51.2101 25.0391 51.5852 25.4142C51.9603 25.7893 52.469 26 52.9994 26C53.5299 26 54.0386 25.7893 54.4136 25.4142C54.7887 25.0391 54.9994 24.5304 54.9994 24V22H56.9994C57.5299 22 58.0386 21.7893 58.4136 21.4142C58.7887 21.0391 58.9994 20.5304 58.9994 20C58.9994 19.4696 58.7887 18.9609 58.4136 18.5858C58.0386 18.2107 57.5299 18 56.9994 18Z" fill="#1472FF"/>
</svg>
