<svg width="27" height="27" viewBox="0 0 27 27" fill="none" xmlns="http://www.w3.org/2000/svg">
<path d="M21.7496 15.75C21.7518 16.1068 21.6434 16.4554 21.4393 16.7481C21.2352 17.0407 20.9454 17.2629 20.6099 17.3841L14.9683 19.4688L12.8902 25.1147C12.7671 25.449 12.5445 25.7375 12.2523 25.9414C11.9601 26.1452 11.6124 26.2544 11.2561 26.2544C10.8999 26.2544 10.5522 26.1452 10.26 25.9414C9.96778 25.7375 9.74513 25.449 9.62206 25.1147L7.53081 19.4688L1.88488 17.3906C1.55055 17.2676 1.26201 17.0449 1.0582 16.7527C0.854394 16.4605 0.745117 16.1128 0.745117 15.7566C0.745117 15.4003 0.854394 15.0526 1.0582 14.7604C1.26201 14.4682 1.55055 14.2456 1.88488 14.1225L7.53081 12.0312L9.60894 6.38531C9.732 6.05098 9.95466 5.76245 10.2469 5.55864C10.5391 5.35483 10.8867 5.24555 11.243 5.24555C11.5993 5.24555 11.9469 5.35483 12.2391 5.55864C12.5313 5.76245 12.754 6.05098 12.8771 6.38531L14.9683 12.0312L20.6143 14.1094C20.9501 14.2316 21.2396 14.4551 21.443 14.749C21.6463 15.0429 21.7535 15.3926 21.7496 15.75ZM15.6246 5.25H17.3746V7C17.3746 7.23206 17.4667 7.45462 17.6308 7.61872C17.7949 7.78281 18.0175 7.875 18.2496 7.875C18.4816 7.875 18.7042 7.78281 18.8683 7.61872C19.0324 7.45462 19.1246 7.23206 19.1246 7V5.25H20.8746C21.1066 5.25 21.3292 5.15781 21.4933 4.99372C21.6574 4.82962 21.7496 4.60706 21.7496 4.375C21.7496 4.14294 21.6574 3.92038 21.4933 3.75628C21.3292 3.59219 21.1066 3.5 20.8746 3.5H19.1246V1.75C19.1246 1.51794 19.0324 1.29538 18.8683 1.13128C18.7042 0.967187 18.4816 0.875 18.2496 0.875C18.0175 0.875 17.7949 0.967187 17.6308 1.13128C17.4667 1.29538 17.3746 1.51794 17.3746 1.75V3.5H15.6246C15.3925 3.5 15.1699 3.59219 15.0058 3.75628C14.8418 3.92038 14.7496 4.14294 14.7496 4.375C14.7496 4.60706 14.8418 4.82962 15.0058 4.99372C15.1699 5.15781 15.3925 5.25 15.6246 5.25ZM25.2496 8.75H24.3746V7.875C24.3746 7.64294 24.2824 7.42038 24.1183 7.25628C23.9542 7.09219 23.7316 7 23.4996 7C23.2675 7 23.0449 7.09219 22.8808 7.25628C22.7167 7.42038 22.6246 7.64294 22.6246 7.875V8.75H21.7496C21.5175 8.75 21.2949 8.84219 21.1308 9.00628C20.9667 9.17038 20.8746 9.39294 20.8746 9.625C20.8746 9.85706 20.9667 10.0796 21.1308 10.2437C21.2949 10.4078 21.5175 10.5 21.7496 10.5H22.6246V11.375C22.6246 11.6071 22.7167 11.8296 22.8808 11.9937C23.0449 12.1578 23.2675 12.25 23.4996 12.25C23.7316 12.25 23.9542 12.1578 24.1183 11.9937C24.2824 11.8296 24.3746 11.6071 24.3746 11.375V10.5H25.2496C25.4816 10.5 25.7042 10.4078 25.8683 10.2437C26.0324 10.0796 26.1246 9.85706 26.1246 9.625C26.1246 9.39294 26.0324 9.17038 25.8683 9.00628C25.7042 8.84219 25.4816 8.75 25.2496 8.75Z" fill="#438EFF"/>
</svg>
