<svg width="196" height="238" viewBox="0 0 196 238" fill="none" xmlns="http://www.w3.org/2000/svg">
<g filter="url(#filter0_d_4372_2252)">
<path d="M124 76C124 74.3431 125.343 73 127 73H132C135.368 73 135.789 76 140 76H153C154.657 76 156 77.3431 156 79V97C156 98.6568 154.657 100 153 100H127C125.343 100 124 98.6568 124 97V76Z" fill="#52AFE0"/>
<path d="M124 76C124 74.3431 125.343 73 127 73H132C135.368 73 135.789 76 140 76H153C154.657 76 156 77.3431 156 79V97C156 98.6568 154.657 100 153 100H127C125.343 100 124 98.6568 124 97V76Z" fill="url(#paint0_linear_4372_2252)" fill-opacity="0.2"/>
<g filter="url(#filter1_i_4372_2252)">
<path d="M124 96.9999V83C124 81.3432 125.343 80 127 80L153 80C154.657 80 156 81.3431 156 83V97C156 98.6568 154.657 100 153 100H127C125.343 100 124 98.6568 124 96.9999Z" fill="#73D0FA"/>
<path d="M124 96.9999V83C124 81.3432 125.343 80 127 80L153 80C154.657 80 156 81.3431 156 83V97C156 98.6568 154.657 100 153 100H127C125.343 100 124 98.6568 124 96.9999Z" fill="url(#paint1_radial_4372_2252)" fill-opacity="0.16"/>
</g>
<g filter="url(#filter2_i_4372_2252)">
<path d="M44 72.5C44 71.6716 44.6716 71 45.5 71H66.5C67.3284 71 68 71.6716 68 72.5V101.5C68 102.328 67.3284 103 66.5 103H45.5C44.6716 103 44 102.328 44 101.5V72.5Z" fill="#FCFCFD"/>
</g>
<path d="M44 72.5C44 71.6716 44.6716 71 45.5 71H66.5C67.3284 71 68 71.6716 68 72.5V101.5C68 102.328 67.3284 103 66.5 103H45.5C44.6716 103 44 102.328 44 101.5V72.5Z" fill="#FCFCFD"/>
<path d="M45.5 71.2H66.5C67.218 71.2 67.8 71.782 67.8 72.5V101.5C67.8 102.218 67.218 102.8 66.5 102.8H45.5C44.782 102.8 44.2 102.218 44.2 101.5V72.5C44.2 71.782 44.782 71.2 45.5 71.2Z" stroke="#E5E5EB" stroke-width="0.4"/>
<mask id="path-6-inside-1_4372_2252" fill="white">
<path d="M45.5 103H66.5C67.3284 103 68 102.328 68 101.5V100.5C68 101.328 67.3284 102 66.5 102H45.5C44.6716 102 44 101.328 44 100.5V101.5C44 102.328 44.6716 103 45.5 103Z"/>
</mask>
<path d="M45.5 103H66.5C67.3284 103 68 102.328 68 101.5V100.5C68 101.328 67.3284 102 66.5 102H45.5C44.6716 102 44 101.328 44 100.5V101.5C44 102.328 44.6716 103 45.5 103Z" fill="#E5E5EB"/>
<path d="M66.5 102H45.5V104H66.5V102ZM45.5 102C45.2239 102 45 101.776 45 101.5H43C43 102.881 44.1193 104 45.5 104V102ZM67 101.5C67 101.776 66.7761 102 66.5 102V104C67.8807 104 69 102.881 69 101.5H67ZM66.5 101H45.5V103H66.5V101ZM45.5 101C45.2239 101 45 100.776 45 100.5H43C43 101.881 44.1193 103 45.5 103V101ZM67 100.5C67 100.776 66.7761 101 66.5 101V103C67.8807 103 69 101.881 69 100.5H67ZM45 101.5V100.5H43V101.5H45ZM69 101.5V100.5H67V101.5H69Z" fill="#E5E5EB" mask="url(#path-6-inside-1_4372_2252)"/>
<path d="M48.4897 90V84.24H51.2257C51.6524 84.24 52.0177 84.3147 52.3217 84.464C52.631 84.6133 52.8684 84.8213 53.0337 85.088C53.2044 85.3547 53.2897 85.6667 53.2897 86.024C53.2897 86.3813 53.2044 86.696 53.0337 86.968C52.863 87.24 52.623 87.4533 52.3137 87.608C52.0097 87.7573 51.647 87.832 51.2257 87.832H49.4657V86.888H51.1617C51.4444 86.888 51.663 86.8107 51.8177 86.656C51.9777 86.496 52.0577 86.288 52.0577 86.032C52.0577 85.776 51.9777 85.5707 51.8177 85.416C51.663 85.2613 51.4444 85.184 51.1617 85.184H49.7217V90H48.4897ZM54.4567 90V89.04H55.9127C56.3287 89.04 56.6807 88.9573 56.9687 88.792C57.262 88.6213 57.4834 88.3893 57.6327 88.096C57.7874 87.8027 57.8647 87.4667 57.8647 87.088C57.8647 86.7147 57.79 86.3867 57.6407 86.104C57.4914 85.8213 57.27 85.6 56.9767 85.44C56.6887 85.28 56.334 85.2 55.9127 85.2H54.4807V84.24H55.9127C56.558 84.24 57.1207 84.3573 57.6007 84.592C58.0807 84.8213 58.4514 85.152 58.7127 85.584C58.9794 86.0107 59.1127 86.5173 59.1127 87.104C59.1127 87.6907 58.9794 88.2027 58.7127 88.64C58.446 89.072 58.0727 89.408 57.5927 89.648C57.118 89.8827 56.5607 90 55.9207 90H54.4567ZM53.7047 90V84.24H54.9367V90H53.7047ZM59.5916 90V84.24H60.8236V90H59.5916ZM60.1676 87.768V86.824H63.4716V87.768H60.1676ZM60.1676 85.184V84.24H63.6556V85.184H60.1676Z" fill="#FF0D00"/>
<g filter="url(#filter3_i_4372_2252)">
<path d="M128 114.5C128 113.672 128.672 113 129.5 113H150.5C151.328 113 152 113.672 152 114.5V143.5C152 144.328 151.328 145 150.5 145H129.5C128.672 145 128 144.328 128 143.5V114.5Z" fill="#FCFCFD"/>
</g>
<path d="M128 114.5C128 113.672 128.672 113 129.5 113H150.5C151.328 113 152 113.672 152 114.5V143.5C152 144.328 151.328 145 150.5 145H129.5C128.672 145 128 144.328 128 143.5V114.5Z" fill="#FCFCFD"/>
<path d="M129.5 113.2H150.5C151.218 113.2 151.8 113.782 151.8 114.5V143.5C151.8 144.218 151.218 144.8 150.5 144.8H129.5C128.782 144.8 128.2 144.218 128.2 143.5V114.5C128.2 113.782 128.782 113.2 129.5 113.2Z" stroke="#E5E5EB" stroke-width="0.4"/>
<path d="M129.5 145H150.5C151.328 145 152 144.328 152 143.5V142.5C152 143.328 151.328 144 150.5 144H129.5C128.672 144 128 143.328 128 142.5V143.5C128 144.328 128.672 145 129.5 145Z" fill="#E5E5EB"/>
<path d="M134.833 121H145.167C146.733 121 148 122.299 148 123.906V134.094C148 135.701 146.733 137 145.167 137H134.833C133.267 137 132 135.701 132 134.094V123.906C132 122.299 133.267 121 134.833 121Z" fill="#001E36"/>
<path d="M135.405 132.22V125.185C135.405 125.137 135.426 125.109 135.473 125.109C135.59 125.109 135.699 125.109 135.856 125.103C136.02 125.096 136.191 125.096 136.375 125.089C136.56 125.082 136.758 125.082 136.97 125.075C137.182 125.068 137.387 125.068 137.592 125.068C138.152 125.068 138.617 125.137 138.999 125.28C139.341 125.397 139.655 125.588 139.915 125.841C140.134 126.06 140.305 126.326 140.414 126.62C140.516 126.908 140.571 127.202 140.571 127.509C140.571 128.097 140.434 128.583 140.161 128.966C139.888 129.349 139.505 129.636 139.061 129.8C138.596 129.971 138.084 130.032 137.523 130.032C137.359 130.032 137.25 130.032 137.182 130.026C137.113 130.019 137.018 130.019 136.888 130.019V132.214C136.895 132.262 136.861 132.303 136.813 132.309C136.806 132.309 136.799 132.309 136.785 132.309H135.487C135.432 132.309 135.405 132.282 135.405 132.22ZM136.895 126.429V128.726C136.99 128.733 137.079 128.74 137.161 128.74H137.523C137.79 128.74 138.056 128.699 138.309 128.617C138.528 128.556 138.719 128.426 138.87 128.255C139.013 128.084 139.081 127.851 139.081 127.55C139.088 127.338 139.034 127.126 138.924 126.942C138.808 126.764 138.644 126.627 138.446 126.552C138.193 126.45 137.92 126.409 137.64 126.415C137.462 126.415 137.305 126.415 137.175 126.422C137.038 126.415 136.943 126.422 136.895 126.429Z" fill="#31A8FF"/>
<path d="M144.835 128.309C144.63 128.2 144.411 128.125 144.179 128.077C143.926 128.022 143.673 127.988 143.414 127.988C143.277 127.981 143.134 128.002 143.004 128.036C142.915 128.056 142.84 128.104 142.792 128.173C142.758 128.227 142.737 128.296 142.737 128.357C142.737 128.419 142.765 128.48 142.806 128.535C142.867 128.61 142.949 128.672 143.038 128.72C143.195 128.802 143.359 128.877 143.523 128.945C143.892 129.068 144.247 129.239 144.575 129.445C144.801 129.588 144.985 129.78 145.115 130.012C145.225 130.231 145.279 130.47 145.272 130.716C145.279 131.038 145.184 131.359 145.006 131.626C144.815 131.899 144.548 132.111 144.241 132.234C143.906 132.378 143.496 132.453 143.004 132.453C142.689 132.453 142.382 132.426 142.074 132.364C141.835 132.323 141.596 132.248 141.377 132.145C141.33 132.118 141.295 132.07 141.302 132.015V130.826C141.302 130.805 141.309 130.778 141.33 130.764C141.35 130.75 141.371 130.757 141.391 130.771C141.658 130.928 141.938 131.038 142.238 131.106C142.498 131.174 142.771 131.209 143.045 131.209C143.304 131.209 143.489 131.174 143.612 131.113C143.721 131.065 143.796 130.949 143.796 130.826C143.796 130.73 143.742 130.641 143.632 130.552C143.523 130.463 143.298 130.361 142.963 130.231C142.614 130.108 142.293 129.944 141.992 129.739C141.781 129.588 141.603 129.39 141.473 129.157C141.364 128.939 141.309 128.699 141.316 128.46C141.316 128.166 141.398 127.886 141.548 127.633C141.719 127.359 141.972 127.14 142.266 127.003C142.587 126.839 142.99 126.764 143.475 126.764C143.755 126.764 144.042 126.785 144.323 126.826C144.528 126.853 144.726 126.908 144.91 126.983C144.938 126.99 144.965 127.017 144.979 127.045C144.985 127.072 144.992 127.099 144.992 127.127V128.241C144.992 128.268 144.979 128.296 144.958 128.309C144.897 128.323 144.862 128.323 144.835 128.309Z" fill="#31A8FF"/>
<g filter="url(#filter4_i_4372_2252)">
<path d="M44 114.5C44 113.672 44.6716 113 45.5 113H66.5C67.3284 113 68 113.672 68 114.5V143.5C68 144.328 67.3284 145 66.5 145H45.5C44.6716 145 44 144.328 44 143.5V114.5Z" fill="#FCFCFD"/>
</g>
<path d="M44 114.5C44 113.672 44.6716 113 45.5 113H66.5C67.3284 113 68 113.672 68 114.5V143.5C68 144.328 67.3284 145 66.5 145H45.5C44.6716 145 44 144.328 44 143.5V114.5Z" fill="#FCFCFD"/>
<path d="M45.5 113.2H66.5C67.218 113.2 67.8 113.782 67.8 114.5V143.5C67.8 144.218 67.218 144.8 66.5 144.8H45.5C44.782 144.8 44.2 144.218 44.2 143.5V114.5C44.2 113.782 44.782 113.2 45.5 113.2Z" stroke="#E5E5EB" stroke-width="0.4"/>
<mask id="path-19-inside-2_4372_2252" fill="white">
<path d="M45.5 145H66.5C67.3284 145 68 144.328 68 143.5V142.5C68 143.328 67.3284 144 66.5 144H45.5C44.6716 144 44 143.328 44 142.5V143.5C44 144.328 44.6716 145 45.5 145Z"/>
</mask>
<path d="M45.5 145H66.5C67.3284 145 68 144.328 68 143.5V142.5C68 143.328 67.3284 144 66.5 144H45.5C44.6716 144 44 143.328 44 142.5V143.5C44 144.328 44.6716 145 45.5 145Z" fill="#E5E5EB"/>
<path d="M66.5 144H45.5V146H66.5V144ZM45.5 144C45.2239 144 45 143.776 45 143.5H43C43 144.881 44.1193 146 45.5 146V144ZM67 143.5C67 143.776 66.7761 144 66.5 144V146C67.8807 146 69 144.881 69 143.5H67ZM66.5 143H45.5V145H66.5V143ZM45.5 143C45.2239 143 45 142.776 45 142.5H43C43 143.881 44.1193 145 45.5 145V143ZM67 142.5C67 142.776 66.7761 143 66.5 143V145C67.8807 145 69 143.881 69 142.5H67ZM45 143.5V142.5H43V143.5H45ZM69 143.5V142.5H67V143.5H69Z" fill="#E5E5EB" mask="url(#path-19-inside-2_4372_2252)"/>
<g clip-path="url(#clip0_4372_2252)">
<path d="M62.818 121.5H51.903C51.5263 121.5 51.221 121.805 51.221 122.182V125.221L57.5466 127.081L63.5 125.221V122.182C63.5 121.805 63.1947 121.5 62.818 121.5Z" fill="#41A5EE"/>
<path d="M63.5 125.221H51.221V128.942L57.5466 130.058L63.5 128.942V125.221Z" fill="#2B7CD3"/>
<path d="M51.221 128.942V132.663L57.1745 133.407L63.5 132.663V128.942H51.221Z" fill="#185ABD"/>
<path d="M51.903 136.384H62.818C63.1947 136.384 63.5001 136.078 63.5001 135.702V132.663H51.221V135.702C51.221 136.078 51.5263 136.384 51.903 136.384Z" fill="#103F91"/>
<path opacity="0.1" d="M55.7482 124.477H51.221V133.779H55.7482C56.1244 133.778 56.4291 133.473 56.4303 133.097V125.159C56.4291 124.783 56.1244 124.478 55.7482 124.477Z" fill="black" fill-opacity="0.5"/>
<path opacity="0.2" d="M55.004 124.849H51.221V133.407H55.004C55.3802 133.406 55.6849 133.101 55.6861 132.725V125.531C55.6849 125.155 55.3802 124.85 55.004 124.849Z" fill="black" fill-opacity="0.6"/>
<path d="M48.182 124.849H55.004C55.3807 124.849 55.686 125.154 55.686 125.531V132.353C55.686 132.73 55.3807 133.035 55.004 133.035H48.182C47.8054 133.035 47.5 132.73 47.5 132.353V125.531C47.5 125.154 47.8054 124.849 48.182 124.849Z" fill="url(#paint2_linear_4372_2252)"/>
<path d="M50.299 130.08C50.3124 130.185 50.3213 130.277 50.3254 130.355H50.341C50.347 130.281 50.3594 130.191 50.3783 130.086C50.3971 129.981 50.4141 129.892 50.4292 129.82L51.1466 126.725H52.0743L52.8184 129.773C52.8617 129.963 52.8926 130.155 52.9111 130.349H52.9234C52.9373 130.161 52.9631 129.975 53.0008 129.791L53.5943 126.723H54.4385L53.3959 131.159H52.4095L51.7025 128.221C51.6821 128.137 51.6586 128.026 51.633 127.891C51.6073 127.755 51.5913 127.655 51.585 127.593H51.5727C51.5645 127.665 51.5485 127.772 51.5247 127.914C51.5009 128.057 51.4818 128.162 51.4674 128.23L50.8028 131.158H49.7996L48.7515 126.725H49.611L50.2573 129.826C50.2718 129.89 50.2856 129.975 50.299 130.08Z" fill="white"/>
</g>
<g filter="url(#filter5_i_4372_2252)">
<path d="M86 93.5C86 92.6716 86.6716 92 87.5 92H108.5C109.328 92 110 92.6716 110 93.5V122.5C110 123.328 109.328 124 108.5 124H87.5C86.6716 124 86 123.328 86 122.5V93.5Z" fill="#FCFCFD"/>
</g>
<path d="M86 93.5C86 92.6716 86.6716 92 87.5 92H108.5C109.328 92 110 92.6716 110 93.5V122.5C110 123.328 109.328 124 108.5 124H87.5C86.6716 124 86 123.328 86 122.5V93.5Z" fill="#FCFCFD"/>
<path d="M87.5 92.2H108.5C109.218 92.2 109.8 92.782 109.8 93.5V122.5C109.8 123.218 109.218 123.8 108.5 123.8H87.5C86.782 123.8 86.2 123.218 86.2 122.5V93.5C86.2 92.782 86.782 92.2 87.5 92.2Z" stroke="#E5E5EB" stroke-width="0.4"/>
<mask id="path-32-inside-3_4372_2252" fill="white">
<path d="M87.5 124H108.5C109.328 124 110 123.328 110 122.5V121.5C110 122.328 109.328 123 108.5 123H87.5C86.6716 123 86 122.328 86 121.5V122.5C86 123.328 86.6716 124 87.5 124Z"/>
</mask>
<path d="M87.5 124H108.5C109.328 124 110 123.328 110 122.5V121.5C110 122.328 109.328 123 108.5 123H87.5C86.6716 123 86 122.328 86 121.5V122.5C86 123.328 86.6716 124 87.5 124Z" fill="#E5E5EB"/>
<path d="M108.5 123H87.5V125H108.5V123ZM87.5 123C87.2239 123 87 122.776 87 122.5H85C85 123.881 86.1193 125 87.5 125V123ZM109 122.5C109 122.776 108.776 123 108.5 123V125C109.881 125 111 123.881 111 122.5H109ZM108.5 122H87.5V124H108.5V122ZM87.5 122C87.2239 122 87 121.776 87 121.5H85C85 122.881 86.1193 124 87.5 124V122ZM109 121.5C109 121.776 108.776 122 108.5 122V124C109.881 124 111 122.881 111 121.5H109ZM87 122.5V121.5H85V122.5H87ZM111 122.5V121.5H109V122.5H111Z" fill="#E5E5EB" mask="url(#path-32-inside-3_4372_2252)"/>
<g clip-path="url(#clip1_4372_2252)">
<path d="M99.5465 107.57L93.2209 106.453V114.702C93.2209 115.078 93.5263 115.384 93.903 115.384H104.818C105.195 115.384 105.5 115.078 105.5 114.702V111.663L99.5465 107.57Z" fill="#185C37"/>
<path d="M99.5465 100.5H93.903C93.5263 100.5 93.2209 100.805 93.2209 101.182V104.221L99.5465 107.942L102.895 109.058L105.5 107.942V104.221L99.5465 100.5Z" fill="#21A366"/>
<path d="M93.2209 104.221H99.5465V107.942H93.2209V104.221Z" fill="#107C41"/>
<path opacity="0.1" d="M97.7482 103.477H93.2209V112.779H97.7482C98.1243 112.778 98.429 112.473 98.4302 112.097V104.159C98.429 103.783 98.1243 103.478 97.7482 103.477Z" fill="black"/>
<path opacity="0.2" d="M97.3761 103.849H93.2209V113.151H97.3761C97.7523 113.15 98.0569 112.845 98.0581 112.469V104.531C98.0569 104.155 97.7523 103.85 97.3761 103.849Z" fill="black"/>
<path opacity="0.2" d="M97.3761 103.849H93.2209V112.407H97.3761C97.7523 112.406 98.0569 112.101 98.0581 111.725V104.531C98.0569 104.155 97.7523 103.85 97.3761 103.849Z" fill="black"/>
<path opacity="0.2" d="M97.004 103.849H93.2209V112.407H97.004C97.3802 112.406 97.6848 112.101 97.686 111.725V104.531C97.6848 104.155 97.3802 103.85 97.004 103.849Z" fill="black"/>
<path d="M90.182 103.849H97.004C97.3807 103.849 97.686 104.154 97.686 104.531V111.353C97.686 111.73 97.3807 112.035 97.004 112.035H90.182C89.8054 112.035 89.5 111.73 89.5 111.353V104.531C89.5 104.154 89.8054 103.849 90.182 103.849Z" fill="url(#paint3_linear_4372_2252)"/>
<path d="M91.6124 110.159L93.0472 107.936L91.7326 105.725H92.79L93.5074 107.139C93.5737 107.273 93.6191 107.373 93.6436 107.438H93.6529C93.7001 107.331 93.7497 107.227 93.8018 107.126L94.5686 105.725H95.5394L94.1913 107.923L95.5737 110.159H94.5407L93.7121 108.607C93.6731 108.541 93.6399 108.471 93.6131 108.4H93.6008C93.5766 108.47 93.5444 108.537 93.5048 108.601L92.6516 110.159H91.6124Z" fill="white"/>
<path d="M104.818 100.5H99.5465V104.221H105.5V101.182C105.5 100.805 105.195 100.5 104.818 100.5Z" fill="#33C481"/>
<path d="M99.5465 107.942H105.5V111.663H99.5465V107.942Z" fill="#107C41"/>
</g>
<path d="M83.5 78C82.6716 78 82 77.3284 82 76.5V55.5C82 54.6716 82.6716 54 83.5 54H112.5C113.328 54 114 54.6716 114 55.5V76.5C114 77.3284 113.328 78 112.5 78H83.5Z" fill="#FCFCFD"/>
<path d="M83.5 54.2H112.5C113.218 54.2 113.8 54.782 113.8 55.5V76.5C113.8 77.218 113.218 77.8 112.5 77.8H83.5C82.782 77.8 82.2 77.218 82.2 76.5V55.5C82.2 54.782 82.782 54.2 83.5 54.2Z" stroke="#E5E5EB" stroke-width="0.4"/>
<path d="M83.5 78H112.5C113.328 78 114 77.3284 114 76.5V75.5C114 76.3284 113.328 77 112.5 77H83.5C82.6716 77 82 76.3284 82 75.5V76.5C82 77.3284 82.6716 78 83.5 78Z" fill="#E5E5EB"/>
<path d="M94.4342 61.2171L103.463 65.7317C103.684 65.8422 103.684 66.1578 103.463 66.2683L94.4342 70.7829C94.2347 70.8827 94 70.7376 94 70.5146V61.4854C94 61.2624 94.2347 61.1173 94.4342 61.2171Z" fill="#8E8E94"/>
<g filter="url(#filter6_i_4372_2252)">
<path d="M86 9.5C86 8.67157 86.6716 8 87.5 8H108.5C109.328 8 110 8.67157 110 9.5V38.5C110 39.3284 109.328 40 108.5 40H87.5C86.6716 40 86 39.3284 86 38.5V9.5Z" fill="#FCFCFD"/>
</g>
<path d="M86 9.5C86 8.67157 86.6716 8 87.5 8H108.5C109.328 8 110 8.67157 110 9.5V38.5C110 39.3284 109.328 40 108.5 40H87.5C86.6716 40 86 39.3284 86 38.5V9.5Z" fill="#FCFCFD"/>
<path d="M87.5 8.2H108.5C109.218 8.2 109.8 8.78203 109.8 9.5V38.5C109.8 39.218 109.218 39.8 108.5 39.8H87.5C86.782 39.8 86.2 39.218 86.2 38.5V9.5C86.2 8.78203 86.782 8.2 87.5 8.2Z" stroke="#E5E5EB" stroke-width="0.4"/>
<path d="M87.5 40H108.5C109.328 40 110 39.3284 110 38.5V37.5C110 38.3284 109.328 39 108.5 39H87.5C86.6716 39 86 38.3284 86 37.5V38.5C86 39.3284 86.6716 40 87.5 40Z" fill="#E5E5EB"/>
<path d="M92.8333 16H103.167C104.733 16 106 17.2991 106 18.906V29.094C106 30.7009 104.733 32 103.167 32H92.8333C91.2667 32 90 30.7009 90 29.094V18.906C90 17.2991 91.2667 16 92.8333 16Z" fill="#330000"/>
<path d="M97.7101 26.0238H95.1665L94.6468 27.6306C94.6332 27.6922 94.5785 27.7332 94.5169 27.7264H93.2314C93.1562 27.7264 93.1357 27.6853 93.1562 27.6033L95.3579 21.2648C95.3785 21.1965 95.399 21.1212 95.4263 21.0392C95.4537 20.8956 95.4673 20.7452 95.4673 20.5947C95.4605 20.5606 95.4879 20.5264 95.522 20.5195H95.5426H97.293C97.3477 20.5195 97.375 20.54 97.3819 20.5742L99.8776 27.617C99.8981 27.6922 99.8776 27.7264 99.8092 27.7264H98.3802C98.3323 27.7332 98.2844 27.699 98.2708 27.6512L97.7101 26.0238V26.0238ZM95.5631 24.6358H97.2998C97.2588 24.4922 97.2041 24.3212 97.1426 24.1435C97.081 23.9588 97.0195 23.7606 96.9579 23.5554C96.8896 23.3435 96.828 23.1383 96.7597 22.9264C96.6913 22.7144 96.6297 22.5161 96.575 22.3178C96.5203 22.1264 96.4725 21.9486 96.4246 21.7845H96.4109C96.3494 22.0785 96.2742 22.3725 96.1785 22.6665C96.0759 22.9947 95.9733 23.3366 95.8639 23.6785C95.7682 24.0272 95.6656 24.3486 95.5631 24.6358V24.6358Z" fill="#FF9A00"/>
<path d="M101.402 21.7162C101.177 21.7231 100.958 21.6342 100.794 21.4769C100.637 21.306 100.554 21.0803 100.561 20.8479C100.554 20.6154 100.643 20.3966 100.807 20.2393C100.972 20.0821 101.19 20 101.416 20C101.683 20 101.888 20.0821 102.038 20.2393C102.189 20.4034 102.271 20.6222 102.264 20.8479C102.271 21.0803 102.189 21.306 102.025 21.4769C101.867 21.641 101.635 21.7299 101.402 21.7162ZM100.637 27.6513V22.3863C100.637 22.3179 100.664 22.2906 100.725 22.2906H102.079C102.141 22.2906 102.168 22.3248 102.168 22.3863V27.6513C102.168 27.7265 102.141 27.7607 102.079 27.7607H100.739C100.671 27.7607 100.637 27.7197 100.637 27.6513V27.6513Z" fill="#FF9A00"/>
<path d="M86 135.5C86 134.672 86.6716 134 87.5 134H98.1621C99.3486 134 100.496 134.422 101.4 135.19L108.238 141.003C109.356 141.953 110 143.345 110 144.812V164.5C110 165.328 109.328 166 108.5 166H87.5C86.6716 166 86 165.328 86 164.5V135.5Z" fill="#FCFCFD"/>
<path d="M108.5 165.8H87.5C86.782 165.8 86.2 165.218 86.2 164.5V135.5C86.2 134.782 86.782 134.2 87.5 134.2H98.1621C99.3011 134.2 100.403 134.605 101.271 135.343L108.109 141.155C109.182 142.067 109.8 143.404 109.8 144.812V164.5C109.8 165.218 109.218 165.8 108.5 165.8Z" stroke="#E5E5EB" stroke-width="0.4"/>
<path d="M99.3334 134.613C99.169 134.438 98.9473 134.281 98.7 134.223V134.205C99.5492 134.249 100.363 134.571 101.013 135.124L108.347 141.357C109.218 142.098 109.74 143.164 109.795 144.3H109.776C109.719 144.053 109.562 143.831 109.387 143.667C109.167 143.461 108.87 143.3 108.6 143.3H101C100.282 143.3 99.7 142.718 99.7 142V135.4C99.7 135.13 99.5393 134.833 99.3334 134.613Z" fill="#F3F3F8" stroke="#E5E5EB" stroke-width="0.4"/>
<mask id="path-59-inside-4_4372_2252" fill="white">
<path d="M87.5 166H108.5C109.328 166 110 165.328 110 164.5V163.5C110 164.328 109.328 165 108.5 165H87.5C86.6716 165 86 164.328 86 163.5V164.5C86 165.328 86.6716 166 87.5 166Z"/>
</mask>
<path d="M87.5 166H108.5C109.328 166 110 165.328 110 164.5V163.5C110 164.328 109.328 165 108.5 165H87.5C86.6716 165 86 164.328 86 163.5V164.5C86 165.328 86.6716 166 87.5 166Z" fill="#E5E5EB"/>
<path d="M108.5 165H87.5V167H108.5V165ZM87.5 165C87.2239 165 87 164.776 87 164.5H85C85 165.881 86.1193 167 87.5 167V165ZM109 164.5C109 164.776 108.776 165 108.5 165V167C109.881 167 111 165.881 111 164.5H109ZM108.5 164H87.5V166H108.5V164ZM87.5 164C87.2239 164 87 163.776 87 163.5H85C85 164.881 86.1193 166 87.5 166V164ZM109 163.5C109 163.776 108.776 164 108.5 164V166C109.881 166 111 164.881 111 163.5H109ZM87 164.5V163.5H85V164.5H87ZM111 164.5V163.5H109V164.5H111Z" fill="#E5E5EB" mask="url(#path-59-inside-4_4372_2252)"/>
<path d="M125.5 57C124.672 57 124 56.3284 124 55.5V34.5C124 33.6716 124.672 33 125.5 33H154.5C155.328 33 156 33.6716 156 34.5V55.5C156 56.3284 155.328 57 154.5 57H125.5Z" fill="#FCFCFD"/>
<path d="M125.5 33.2H154.5C155.218 33.2 155.8 33.782 155.8 34.5V55.5C155.8 56.218 155.218 56.8 154.5 56.8H125.5C124.782 56.8 124.2 56.218 124.2 55.5V34.5C124.2 33.782 124.782 33.2 125.5 33.2Z" stroke="#E5E5EB" stroke-width="0.4"/>
<mask id="path-63-inside-5_4372_2252" fill="white">
<path d="M125.5 57H154.5C155.328 57 156 56.3284 156 55.5V54.5C156 55.3284 155.328 56 154.5 56H125.5C124.672 56 124 55.3284 124 54.5V55.5C124 56.3284 124.672 57 125.5 57Z"/>
</mask>
<path d="M125.5 57H154.5C155.328 57 156 56.3284 156 55.5V54.5C156 55.3284 155.328 56 154.5 56H125.5C124.672 56 124 55.3284 124 54.5V55.5C124 56.3284 124.672 57 125.5 57Z" fill="#E5E5EB"/>
<path d="M154.5 56H125.5V58H154.5V56ZM125.5 56C125.224 56 125 55.7761 125 55.5H123C123 56.8807 124.119 58 125.5 58V56ZM155 55.5C155 55.7761 154.776 56 154.5 56V58C155.881 58 157 56.8807 157 55.5H155ZM154.5 55H125.5V57H154.5V55ZM125.5 55C125.224 55 125 54.7761 125 54.5H123C123 55.8807 124.119 57 125.5 57V55ZM155 54.5C155 54.7761 154.776 55 154.5 55V57C155.881 57 157 55.8807 157 54.5H155ZM125 55.5V54.5H123V55.5H125ZM157 55.5V54.5H155V55.5H157Z" fill="#E5E5EB" mask="url(#path-63-inside-5_4372_2252)"/>
<g clip-path="url(#clip2_4372_2252)">
<path d="M141.674 45.686L140.558 37.5H140.475C136.416 37.5119 133.128 40.7994 133.116 44.8585V44.9419L141.674 45.686Z" fill="#ED6C47"/>
<path d="M140.642 37.5H140.558V44.9419L144.279 46.4302L148 44.9419V44.8585C147.988 40.7994 144.701 37.5119 140.642 37.5Z" fill="#FF8F6B"/>
<path d="M148 44.9419V45.0238C147.988 49.0837 144.7 52.3721 140.64 52.3838H140.476C136.416 52.3721 133.128 49.0837 133.116 45.0238V44.9419H148Z" fill="#D35230"/>
<path opacity="0.1" d="M140.93 41.1577V49.0982C140.928 49.3741 140.761 49.622 140.506 49.727C140.425 49.7614 140.338 49.7791 140.249 49.7791H134.873C134.768 49.6601 134.668 49.5336 134.575 49.407C133.627 48.1424 133.115 46.6043 133.116 45.0238V44.8601C133.114 43.4345 133.531 42.0397 134.314 40.8489C134.396 40.7224 134.482 40.5959 134.575 40.4768H140.249C140.624 40.4796 140.927 40.7829 140.93 41.1577Z" fill="black"/>
<path opacity="0.2" d="M140.558 41.5298V49.4703C140.558 49.5585 140.54 49.6458 140.506 49.727C140.401 49.9821 140.153 50.1494 139.877 50.1512H135.211C135.093 50.0317 134.98 49.9076 134.873 49.7791C134.768 49.66 134.668 49.5335 134.575 49.407C133.627 48.1424 133.115 46.6042 133.116 45.0238V44.86C133.114 43.4345 133.531 42.0397 134.314 40.8489H139.877C140.252 40.8517 140.555 41.1549 140.558 41.5298Z" fill="black"/>
<path opacity="0.2" d="M140.558 41.5298V48.7261C140.555 49.101 140.252 49.4042 139.877 49.407H134.575C133.627 48.1424 133.115 46.6042 133.116 45.0238V44.86C133.114 43.4345 133.531 42.0397 134.314 40.8489H139.877C140.252 40.8517 140.555 41.1549 140.558 41.5298Z" fill="black"/>
<path opacity="0.2" d="M140.186 41.5298V48.7261C140.183 49.101 139.88 49.4042 139.505 49.407H134.575C133.627 48.1424 133.115 46.6042 133.116 45.0238V44.86C133.114 43.4345 133.531 42.0397 134.314 40.8489H139.505C139.88 40.8517 140.183 41.1549 140.186 41.5298Z" fill="black"/>
<path d="M132.682 40.8489H139.504C139.881 40.8489 140.186 41.1542 140.186 41.5309V48.3529C140.186 48.7296 139.881 49.0349 139.504 49.0349H132.682C132.305 49.0349 132 48.7296 132 48.3529V41.5309C132 41.1542 132.305 40.8489 132.682 40.8489Z" fill="url(#paint4_linear_4372_2252)"/>
<path d="M136.167 42.6681C136.612 42.6381 137.052 42.7671 137.41 43.032C137.708 43.2983 137.867 43.687 137.842 44.0861C137.847 44.3636 137.773 44.6367 137.629 44.8738C137.483 45.1069 137.272 45.2927 137.023 45.4089C136.738 45.5414 136.427 45.6068 136.113 45.6002H135.25V47.2039H134.366V42.6681H136.167ZM135.249 44.9073H136.01C136.251 44.925 136.49 44.8537 136.682 44.7068C136.841 44.5544 136.924 44.3396 136.909 44.12C136.909 43.6201 136.619 43.3702 136.038 43.3702H135.249V44.9073H135.249Z" fill="white"/>
</g>
<path d="M40.0002 34C40.0002 32.3431 41.3434 31 43.0002 31H48C51.3684 31 51.7895 34 56 34H69.0002C70.6571 34 72.0002 35.3431 72.0002 37V55C72.0002 56.6568 70.6571 58 69.0002 58H43.0002C41.3434 58 40.0002 56.6568 40.0002 55V34Z" fill="#52AFE0"/>
<path d="M40.0002 34C40.0002 32.3431 41.3434 31 43.0002 31H48C51.3684 31 51.7895 34 56 34H69.0002C70.6571 34 72.0002 35.3431 72.0002 37V55C72.0002 56.6568 70.6571 58 69.0002 58H43.0002C41.3434 58 40.0002 56.6568 40.0002 55V34Z" fill="url(#paint5_linear_4372_2252)" fill-opacity="0.2"/>
<g filter="url(#filter7_i_4372_2252)">
<path d="M40 54.9999V41C40 39.3432 41.3431 38 43 38L69 38C70.6568 38 72 39.3431 72 41V55C72 56.6568 70.6568 58 69 58H43C41.3431 58 40 56.6568 40 54.9999Z" fill="#73D0FA"/>
<path d="M40 54.9999V41C40 39.3432 41.3431 38 43 38L69 38C70.6568 38 72 39.3431 72 41V55C72 56.6568 70.6568 58 69 58H43C41.3431 58 40 56.6568 40 54.9999Z" fill="url(#paint6_radial_4372_2252)" fill-opacity="0.16"/>
</g>
</g>
<defs>
<filter id="filter0_d_4372_2252" x="0" y="0" width="196" height="238" filterUnits="userSpaceOnUse" color-interpolation-filters="sRGB">
<feFlood flood-opacity="0" result="BackgroundImageFix"/>
<feColorMatrix in="SourceAlpha" type="matrix" values="0 0 0 0 0 0 0 0 0 0 0 0 0 0 0 0 0 0 127 0" result="hardAlpha"/>
<feOffset dy="32"/>
<feGaussianBlur stdDeviation="20"/>
<feComposite in2="hardAlpha" operator="out"/>
<feColorMatrix type="matrix" values="0 0 0 0 0 0 0 0 0 0 0 0 0 0 0 0 0 0 0.04 0"/>
<feBlend mode="normal" in2="BackgroundImageFix" result="effect1_dropShadow_4372_2252"/>
<feBlend mode="normal" in="SourceGraphic" in2="effect1_dropShadow_4372_2252" result="shape"/>
</filter>
<filter id="filter1_i_4372_2252" x="124" y="78" width="32" height="22" filterUnits="userSpaceOnUse" color-interpolation-filters="sRGB">
<feFlood flood-opacity="0" result="BackgroundImageFix"/>
<feBlend mode="normal" in="SourceGraphic" in2="BackgroundImageFix" result="shape"/>
<feColorMatrix in="SourceAlpha" type="matrix" values="0 0 0 0 0 0 0 0 0 0 0 0 0 0 0 0 0 0 127 0" result="hardAlpha"/>
<feOffset dy="-2"/>
<feGaussianBlur stdDeviation="1"/>
<feComposite in2="hardAlpha" operator="arithmetic" k2="-1" k3="1"/>
<feColorMatrix type="matrix" values="0 0 0 0 0.321569 0 0 0 0 0.686275 0 0 0 0 0.878431 0 0 0 0.32 0"/>
<feBlend mode="normal" in2="shape" result="effect1_innerShadow_4372_2252"/>
</filter>
<filter id="filter2_i_4372_2252" x="44" y="71" width="24" height="32" filterUnits="userSpaceOnUse" color-interpolation-filters="sRGB">
<feFlood flood-opacity="0" result="BackgroundImageFix"/>
<feBlend mode="normal" in="SourceGraphic" in2="BackgroundImageFix" result="shape"/>
<feColorMatrix in="SourceAlpha" type="matrix" values="0 0 0 0 0 0 0 0 0 0 0 0 0 0 0 0 0 0 127 0" result="hardAlpha"/>
<feOffset dy="-1"/>
<feComposite in2="hardAlpha" operator="arithmetic" k2="-1" k3="1"/>
<feColorMatrix type="matrix" values="0 0 0 0 0 0 0 0 0 0 0 0 0 0 0 0 0 0 0.16 0"/>
<feBlend mode="normal" in2="shape" result="effect1_innerShadow_4372_2252"/>
</filter>
<filter id="filter3_i_4372_2252" x="128" y="113" width="24" height="32" filterUnits="userSpaceOnUse" color-interpolation-filters="sRGB">
<feFlood flood-opacity="0" result="BackgroundImageFix"/>
<feBlend mode="normal" in="SourceGraphic" in2="BackgroundImageFix" result="shape"/>
<feColorMatrix in="SourceAlpha" type="matrix" values="0 0 0 0 0 0 0 0 0 0 0 0 0 0 0 0 0 0 127 0" result="hardAlpha"/>
<feOffset dy="-1"/>
<feComposite in2="hardAlpha" operator="arithmetic" k2="-1" k3="1"/>
<feColorMatrix type="matrix" values="0 0 0 0 0 0 0 0 0 0 0 0 0 0 0 0 0 0 0.16 0"/>
<feBlend mode="normal" in2="shape" result="effect1_innerShadow_4372_2252"/>
</filter>
<filter id="filter4_i_4372_2252" x="44" y="113" width="24" height="32" filterUnits="userSpaceOnUse" color-interpolation-filters="sRGB">
<feFlood flood-opacity="0" result="BackgroundImageFix"/>
<feBlend mode="normal" in="SourceGraphic" in2="BackgroundImageFix" result="shape"/>
<feColorMatrix in="SourceAlpha" type="matrix" values="0 0 0 0 0 0 0 0 0 0 0 0 0 0 0 0 0 0 127 0" result="hardAlpha"/>
<feOffset dy="-1"/>
<feComposite in2="hardAlpha" operator="arithmetic" k2="-1" k3="1"/>
<feColorMatrix type="matrix" values="0 0 0 0 0 0 0 0 0 0 0 0 0 0 0 0 0 0 0.16 0"/>
<feBlend mode="normal" in2="shape" result="effect1_innerShadow_4372_2252"/>
</filter>
<filter id="filter5_i_4372_2252" x="86" y="92" width="24" height="32" filterUnits="userSpaceOnUse" color-interpolation-filters="sRGB">
<feFlood flood-opacity="0" result="BackgroundImageFix"/>
<feBlend mode="normal" in="SourceGraphic" in2="BackgroundImageFix" result="shape"/>
<feColorMatrix in="SourceAlpha" type="matrix" values="0 0 0 0 0 0 0 0 0 0 0 0 0 0 0 0 0 0 127 0" result="hardAlpha"/>
<feOffset dy="-1"/>
<feComposite in2="hardAlpha" operator="arithmetic" k2="-1" k3="1"/>
<feColorMatrix type="matrix" values="0 0 0 0 0 0 0 0 0 0 0 0 0 0 0 0 0 0 0.16 0"/>
<feBlend mode="normal" in2="shape" result="effect1_innerShadow_4372_2252"/>
</filter>
<filter id="filter6_i_4372_2252" x="86" y="8" width="24" height="32" filterUnits="userSpaceOnUse" color-interpolation-filters="sRGB">
<feFlood flood-opacity="0" result="BackgroundImageFix"/>
<feBlend mode="normal" in="SourceGraphic" in2="BackgroundImageFix" result="shape"/>
<feColorMatrix in="SourceAlpha" type="matrix" values="0 0 0 0 0 0 0 0 0 0 0 0 0 0 0 0 0 0 127 0" result="hardAlpha"/>
<feOffset dy="-1"/>
<feComposite in2="hardAlpha" operator="arithmetic" k2="-1" k3="1"/>
<feColorMatrix type="matrix" values="0 0 0 0 0 0 0 0 0 0 0 0 0 0 0 0 0 0 0.16 0"/>
<feBlend mode="normal" in2="shape" result="effect1_innerShadow_4372_2252"/>
</filter>
<filter id="filter7_i_4372_2252" x="40" y="36" width="32" height="22" filterUnits="userSpaceOnUse" color-interpolation-filters="sRGB">
<feFlood flood-opacity="0" result="BackgroundImageFix"/>
<feBlend mode="normal" in="SourceGraphic" in2="BackgroundImageFix" result="shape"/>
<feColorMatrix in="SourceAlpha" type="matrix" values="0 0 0 0 0 0 0 0 0 0 0 0 0 0 0 0 0 0 127 0" result="hardAlpha"/>
<feOffset dy="-2"/>
<feGaussianBlur stdDeviation="1"/>
<feComposite in2="hardAlpha" operator="arithmetic" k2="-1" k3="1"/>
<feColorMatrix type="matrix" values="0 0 0 0 0.321569 0 0 0 0 0.686275 0 0 0 0 0.878431 0 0 0 0.32 0"/>
<feBlend mode="normal" in2="shape" result="effect1_innerShadow_4372_2252"/>
</filter>
<linearGradient id="paint0_linear_4372_2252" x1="140" y1="78" x2="140" y2="84" gradientUnits="userSpaceOnUse">
<stop stop-color="#52AFE0"/>
<stop offset="1" stop-color="#00529E" stop-opacity="0.1"/>
</linearGradient>
<radialGradient id="paint1_radial_4372_2252" cx="0" cy="0" r="1" gradientUnits="userSpaceOnUse" gradientTransform="translate(140 84) rotate(90) scale(12 19.2)">
<stop stop-color="white"/>
<stop offset="1" stop-color="white" stop-opacity="0"/>
</radialGradient>
<linearGradient id="paint2_linear_4372_2252" x1="48.9221" y1="124.316" x2="54.264" y2="133.568" gradientUnits="userSpaceOnUse">
<stop stop-color="#2368C4"/>
<stop offset="0.5" stop-color="#1A5DBE"/>
<stop offset="1" stop-color="#1146AC"/>
</linearGradient>
<linearGradient id="paint3_linear_4372_2252" x1="90.9221" y1="103.316" x2="96.264" y2="112.568" gradientUnits="userSpaceOnUse">
<stop stop-color="#18884F"/>
<stop offset="0.5" stop-color="#117E43"/>
<stop offset="1" stop-color="#0B6631"/>
</linearGradient>
<linearGradient id="paint4_linear_4372_2252" x1="133.422" y1="40.3159" x2="138.764" y2="49.5679" gradientUnits="userSpaceOnUse">
<stop stop-color="#CA4C28"/>
<stop offset="0.5" stop-color="#C5401E"/>
<stop offset="1" stop-color="#B62F14"/>
</linearGradient>
<linearGradient id="paint5_linear_4372_2252" x1="56" y1="36" x2="56" y2="42" gradientUnits="userSpaceOnUse">
<stop stop-color="#52AFE0"/>
<stop offset="1" stop-color="#00529E" stop-opacity="0.1"/>
</linearGradient>
<radialGradient id="paint6_radial_4372_2252" cx="0" cy="0" r="1" gradientUnits="userSpaceOnUse" gradientTransform="translate(56 42) rotate(90) scale(12 19.2)">
<stop stop-color="white"/>
<stop offset="1" stop-color="white" stop-opacity="0"/>
</radialGradient>
<clipPath id="clip0_4372_2252">
<rect width="16" height="14.8837" fill="white" transform="translate(47.5 121.5)"/>
</clipPath>
<clipPath id="clip1_4372_2252">
<rect width="16" height="14.8837" fill="white" transform="translate(89.5 100.5)"/>
</clipPath>
<clipPath id="clip2_4372_2252">
<rect width="16" height="14.8837" fill="white" transform="translate(132 37.5)"/>
</clipPath>
</defs>
</svg>
