<svg width="48" height="50" viewBox="0 0 48 50" fill="none" xmlns="http://www.w3.org/2000/svg">
<path d="M44 0H4C2.93913 0 1.92172 0.421427 1.17157 1.17157C0.421427 1.92172 0 2.93913 0 4V18C0 31.18 6.38 39.1675 11.7325 43.5475C17.4975 48.2625 23.2325 49.865 23.4825 49.93C23.8263 50.0235 24.1887 50.0235 24.5325 49.93C24.7825 49.865 30.51 48.2625 36.2825 43.5475C41.62 39.1675 48 31.18 48 18V4C48 2.93913 47.5786 1.92172 46.8284 1.17157C46.0783 0.421427 45.0609 0 44 0ZM22 14C22 13.4696 22.2107 12.9609 22.5858 12.5858C22.9609 12.2107 23.4696 12 24 12C24.5304 12 25.0391 12.2107 25.4142 12.5858C25.7893 12.9609 26 13.4696 26 14V24C26 24.5304 25.7893 25.0391 25.4142 25.4142C25.0391 25.7893 24.5304 26 24 26C23.4696 26 22.9609 25.7893 22.5858 25.4142C22.2107 25.0391 22 24.5304 22 24V14ZM24 36C23.4067 36 22.8266 35.8241 22.3333 35.4944C21.8399 35.1648 21.4554 34.6962 21.2284 34.148C21.0013 33.5999 20.9419 32.9967 21.0576 32.4147C21.1734 31.8328 21.4591 31.2982 21.8787 30.8787C22.2982 30.4591 22.8328 30.1734 23.4147 30.0576C23.9967 29.9419 24.5999 30.0013 25.148 30.2284C25.6962 30.4554 26.1648 30.8399 26.4944 31.3333C26.8241 31.8266 27 32.4067 27 33C27 33.7957 26.6839 34.5587 26.1213 35.1213C25.5587 35.6839 24.7956 36 24 36Z" fill="#FF244C"/>
</svg>
